<?xml version="1.0" encoding="UTF-8"?>
<svg version="1.1" xmlns="http://www.w3.org/2000/svg" width="186" height="182">
<path d="M0 0 C61.38 0 122.76 0 186 0 C186 60.06 186 120.12 186 182 C124.62 182 63.24 182 0 182 C0 121.94 0 61.88 0 0 Z " fill="#ECEEED" transform="translate(0,0)"/>
<path d="M0 0 C2.96404505 2.80804268 5.44499019 5.18315774 7 9 C7.66 9 8.32 9 9 9 C9.33 11.97 9.66 14.94 10 18 C58.18 18 106.36 18 156 18 C156 17.01 156 16.02 156 15 C158.97 15 161.94 15 165 15 C165 17.97 165 20.94 165 24 C164.01 24 163.02 24 162 24 C161.690625 24.78375 161.38125 25.5675 161.0625 26.375 C160 29 160 29 159 31 C158.34 31 157.68 31 157 31 C157 31.99 157 32.98 157 34 C157.66 34.33 158.32 34.66 159 35 C159.268125 34.2575 159.53625 33.515 159.8125 32.75 C160.98232553 30.04093035 161.91312362 28.08687638 164 26 C166.6875 25.75 166.6875 25.75 169 26 C167.87387279 29.27600644 166.4281214 31.82892486 164.4375 34.625 C161.28297404 39.46812516 161.11447034 44.33892138 161 50 C159.02 50 157.04 50 155 50 C154.94392578 48.87851563 154.94392578 48.87851563 154.88671875 47.734375 C154.82097656 46.74953125 154.75523437 45.7646875 154.6875 44.75 C154.60048828 43.28820312 154.60048828 43.28820312 154.51171875 41.796875 C153.95363476 38.74658389 153.03630224 37.29288724 151 35 C150.34 35.99 149.68 36.98 149 38 C149.99 38.33 150.98 38.66 152 39 C153.90805985 42.8161197 153.70867388 46.86110636 153 51 C151.13944551 54.44698339 148.64964759 57.13525187 146 60 C144.95199219 61.25683594 144.95199219 61.25683594 143.8828125 62.5390625 C138.84389635 68.47458294 133.66377865 72.98947356 127 77 C126.09483643 77.54769043 126.09483643 77.54769043 125.17138672 78.10644531 C104.29742335 90.52519728 83.45907051 92.82709246 60 87 C44.04486186 82.54740331 30.38078105 72.75202545 20 60 C19.49210937 59.41734375 18.98421875 58.8346875 18.4609375 58.234375 C15 54.25139665 15 54.25139665 15 52 C18.96 52 22.92 52 27 52 C27.33 51.34 27.66 50.68 28 50 C31.63 50 35.26 50 39 50 C39 48.35 39 46.7 39 45 C34.71 45 30.42 45 26 45 C26 43.35 26 41.7 26 40 C29.63 40 33.26 40 37 40 C37 38.35 37 36.7 37 35 C33.37 35 29.74 35 26 35 C26 33.68 26 32.36 26 31 C29.96 31 33.92 31 38 31 C38 29.35 38 27.7 38 26 C31.73 26 25.46 26 19 26 C19 31.94 19 37.88 19 44 C18.01 44.495 18.01 44.495 17 45 C17 43.35 17 41.7 17 40 C13.98029212 38.43370292 10.91349586 37.12374836 7.75 35.875 C6.85796875 35.52179688 5.9659375 35.16859375 5.046875 34.8046875 C4.37140625 34.53914063 3.6959375 34.27359375 3 34 C3.33 32.68 3.66 31.36 4 30 C6.64 30 9.28 30 12 30 C12 30.66 12 31.32 12 32 C12.99 32 13.98 32 15 32 C14.34 30.02 13.68 28.04 13 26 C9.7 25.67 6.4 25.34 3 25 C0.30819507 18.8985755 -0.12501399 13.25148291 -0.0625 6.625 C-0.05347656 5.37976563 -0.04445313 4.13453125 -0.03515625 2.8515625 C-0.02355469 1.91054687 -0.01195312 0.96953125 0 0 Z " fill="#F3F3F3" transform="translate(11,88)"/>
<path d="M0 0 C0.63800537 0.34957764 1.27601074 0.69915527 1.93334961 1.05932617 C7.96410725 4.41813953 11.74875875 8.65166423 16 14 C16.7425 14.7425 17.485 15.485 18.25 16.25 C18.8275 16.8275 19.405 17.405 20 18 C20 18.33 20 18.66 20 19 C16.04 19 12.08 19 8 19 C7.34 20.32 6.68 21.64 6 23 C6 22.34 6 21.68 6 21 C-0.29277626 21.30793971 -0.29277626 21.30793971 -5 25 C-6.32 25 -7.64 25 -9 25 C-8.69349173 28.77134561 -8.37876767 32.54196127 -8.0625 36.3125 C-7.97548828 37.38435547 -7.88847656 38.45621094 -7.79882812 39.56054688 C-7.71181641 40.58857422 -7.62480469 41.61660156 -7.53515625 42.67578125 C-7.456604 43.62364502 -7.37805176 44.57150879 -7.29711914 45.5480957 C-7.06676896 48.13270257 -7.06676896 48.13270257 -6 51 C-6.62084961 52.80932617 -6.62084961 52.80932617 -7.65234375 54.79296875 C-8.01650391 55.50517578 -8.38066406 56.21738281 -8.75585938 56.95117188 C-9.34077148 58.0581543 -9.34077148 58.0581543 -9.9375 59.1875 C-10.32357422 59.93708984 -10.70964844 60.68667969 -11.10742188 61.45898438 C-12.06271757 63.31060689 -13.03021577 65.15592452 -14 67 C-14.99 67 -15.98 67 -17 67 C-17 65.68 -17 64.36 -17 63 C-27.56 63 -38.12 63 -49 63 C-49 61 -49 61 -47.0625 59 C-46.60617188 58.56042969 -46.14984375 58.12085937 -45.6796875 57.66796875 C-39.53874771 51.56987273 -34.0325357 44.93199698 -28.82421875 38.03125 C-26.96554423 35.96163383 -25.48983644 35.14469175 -23 34 C-20.3778289 29.44570283 -20.61292968 25.51636709 -20 20 C-34.52 20.33 -49.04 20.66 -64 21 C-64.99 23.64 -65.98 26.28 -67 29 C-53.14 29.495 -53.14 29.495 -39 30 C-41.03556287 34.07112574 -43.29814913 36.69629736 -46.34375 40 C-47.9440731 41.93246563 -48.89096137 43.76788427 -50 46 C-50.763125 46.598125 -51.52625 47.19625 -52.3125 47.8125 C-55.11009222 50.08960995 -56.73555683 52.31487434 -58.7421875 55.26171875 C-60.5677479 57.78462054 -62.74435995 59.86307785 -65 62 C-67.06793593 63.99134571 -68.37169501 65.55754252 -70 68 C-70.33 66.35 -70.66 64.7 -71 63 C-76.28 63 -81.56 63 -87 63 C-86.1302743 58.65137149 -85.0525056 55.83729307 -83 52 C-81.35 52 -79.7 52 -78 52 C-78 48.37 -78 44.74 -78 41 C-88.56 41 -99.12 41 -110 41 C-110 37.37 -110 33.74 -110 30 C-108.96069336 29.98018066 -107.92138672 29.96036133 -106.85058594 29.93994141 C-102.98885164 29.86377876 -99.1274889 29.775078 -95.26611328 29.68261719 C-93.59594059 29.64437143 -91.92568677 29.60951085 -90.25537109 29.578125 C-87.85224443 29.53237839 -85.44967416 29.47440075 -83.046875 29.4140625 C-82.30193787 29.40251129 -81.55700073 29.39096008 -80.78948975 29.37905884 C-75.44322816 29.42081333 -75.44322816 29.42081333 -71 27 C-70.67 24.36 -70.34 21.72 -70 19 C-77.26 19 -84.52 19 -92 19 C-93 14 -93 14 -91.5078125 11.67578125 C-65.75669225 -13.86426425 -31.19954003 -17.31837122 0 0 Z " fill="#F0F2F3" transform="translate(132,27)"/>
<path d="M0 0 C3.32025766 0.78999098 3.32025766 0.78999098 6.171875 1.1328125 C20.51623206 3.05932 35.98923351 16.22296808 45.3984375 26.95703125 C47.19132979 29.40188438 48.11909422 30.80688945 48.4609375 33.76953125 C49.1209375 33.76953125 49.7809375 33.76953125 50.4609375 33.76953125 C53.4609375 37.23106971 53.4609375 37.23106971 53.4609375 39.76953125 C52.4709375 39.76953125 51.4809375 39.76953125 50.4609375 39.76953125 C50.4609375 40.42953125 50.4609375 41.08953125 50.4609375 41.76953125 C53.1009375 42.09953125 55.7409375 42.42953125 58.4609375 42.76953125 C58.829958 57.55085243 58.829958 57.55085243 56.4609375 63.76953125 C56.1309375 63.76953125 55.8009375 63.76953125 55.4609375 63.76953125 C55.4609375 57.82953125 55.4609375 51.88953125 55.4609375 45.76953125 C53.1509375 45.76953125 50.8409375 45.76953125 48.4609375 45.76953125 C48.77777679 52.31754321 50.12833268 56.77375336 53.3046875 62.5078125 C54.4609375 64.76953125 54.4609375 64.76953125 54.9296875 66.875 C55.31309338 68.85531172 55.31309338 68.85531172 56.86645508 70.12792969 C58.65142963 71.96565268 59.47445235 73.59115249 60.50390625 75.9296875 C60.85517578 76.72310547 61.20644531 77.51652344 61.56835938 78.33398438 C61.92478516 79.15833984 62.28121094 79.98269531 62.6484375 80.83203125 C63.01646484 81.66025391 63.38449219 82.48847656 63.76367188 83.34179688 C66.4609375 89.49196284 66.4609375 89.49196284 66.4609375 91.76953125 C61.5109375 91.76953125 56.5609375 91.76953125 51.4609375 91.76953125 C49.4809375 86.32453125 49.4809375 86.32453125 47.4609375 80.76953125 C38.8809375 80.76953125 30.3009375 80.76953125 21.4609375 80.76953125 C20.1409375 84.39953125 18.8209375 88.02953125 17.4609375 91.76953125 C12.8409375 91.76953125 8.2209375 91.76953125 3.4609375 91.76953125 C4.52869611 86.82842381 5.83560576 82.73279324 8.22827148 78.29296875 C11.557801 72.07233225 13.16715012 67.66020688 11.15234375 60.6875 C10.26437538 56.93997249 10.27883071 53.41673004 10.3359375 49.58203125 C10.35398437 48.28910156 10.37203125 46.99617188 10.390625 45.6640625 C10.41382812 44.70886719 10.43703125 43.75367188 10.4609375 42.76953125 C11.2653125 42.48078125 12.0696875 42.19203125 12.8984375 41.89453125 C15.5935843 41.03690557 15.5935843 41.03690557 16.4609375 38.76953125 C19.7609375 38.76953125 23.0609375 38.76953125 26.4609375 38.76953125 C26.9559375 37.77953125 26.9559375 37.77953125 27.4609375 36.76953125 C29.96484375 36.35546875 29.96484375 36.35546875 33.0234375 36.14453125 C34.03535156 36.06976563 35.04726562 35.995 36.08984375 35.91796875 C36.87230469 35.86898437 37.65476562 35.82 38.4609375 35.76953125 C38.1309375 34.77953125 37.8009375 33.78953125 37.4609375 32.76953125 C35.9759375 32.27453125 35.9759375 32.27453125 34.4609375 31.76953125 C32.75209745 30.1461332 31.08647033 28.47634072 29.4609375 26.76953125 C28.8628125 26.21265625 28.2646875 25.65578125 27.6484375 25.08203125 C26.4609375 23.76953125 26.4609375 23.76953125 26.4609375 21.76953125 C25.78417969 21.52074219 25.10742188 21.27195312 24.41015625 21.015625 C21.56049767 19.81159707 18.89619454 18.40489188 16.1953125 16.90063477 C-0.5634557 7.58240199 -19.0351722 4.88837941 -37.71289062 9.86083984 C-52.35582035 14.18319422 -66.9447066 22.8779974 -75.5390625 35.76953125 C-78.359375 36.0625 -78.359375 36.0625 -81.6640625 35.95703125 C-83.30761719 35.91642578 -83.30761719 35.91642578 -84.984375 35.875 C-86.24894531 35.82279297 -86.24894531 35.82279297 -87.5390625 35.76953125 C-86.26009597 32.14054249 -84.81144409 29.61232785 -82.2265625 26.76953125 C-81.28683594 25.73505859 -81.28683594 25.73505859 -80.328125 24.6796875 C-78.11301608 22.31464763 -75.88768505 20.00358685 -73.5390625 17.76953125 C-72.98992187 17.22554687 -72.44078125 16.6815625 -71.875 16.12109375 C-53.72239428 -0.98568283 -23.42314785 -5.28831895 0 0 Z " fill="#AEAEAE" transform="translate(112.5390625,9.23046875)"/>
<path d="M0 0 C1.60871112 0.01510756 3.21743631 0.02878499 4.82617188 0.04101562 C8.69697478 0.07346425 12.56707234 0.1248925 16.4375 0.1875 C15.96199439 1.66784764 15.48198784 3.14675021 15 4.625 C14.73316406 5.44871094 14.46632812 6.27242187 14.19140625 7.12109375 C13.4375 9.1875 13.4375 9.1875 12.4375 10.1875 C9.84390678 10.27601529 7.27710309 10.30275945 4.68359375 10.28515625 C3.90814713 10.2837413 3.1327005 10.28232635 2.33375549 10.28086853 C-0.15253494 10.27525345 -2.6387366 10.26269846 -5.125 10.25 C-6.80663933 10.24498694 -8.48828006 10.2404237 -10.16992188 10.23632812 C-14.30081566 10.22527913 -18.43164276 10.20800445 -22.5625 10.1875 C-22.5625 13.8175 -22.5625 17.4475 -22.5625 21.1875 C-12.0025 21.1875 -1.4425 21.1875 9.4375 21.1875 C9.4375 24.8175 9.4375 28.4475 9.4375 32.1875 C7.7875 32.1875 6.1375 32.1875 4.4375 32.1875 C4.334375 32.703125 4.23125 33.21875 4.125 33.75 C3.19486134 37.04776435 1.82354488 40.05383332 0.4375 43.1875 C5.3875 43.1875 10.3375 43.1875 15.4375 43.1875 C15.4375 46.8175 15.4375 50.4475 15.4375 54.1875 C11.02682876 54.33692337 6.61753519 54.44521011 2.20507812 54.51708984 C0.70742094 54.54708169 -0.79006329 54.58789126 -2.28710938 54.64013672 C-16.31766725 55.11717569 -16.31766725 55.11717569 -21.390625 51.40625 C-23.15625 49.75146484 -23.15625 49.75146484 -24.5625 48.1875 C-25.20703125 47.50945312 -25.8515625 46.83140625 -26.515625 46.1328125 C-34.09554452 35.49352788 -35.72923905 27.33436284 -35.625 14.3125 C-35.62048828 13.24257813 -35.61597656 12.17265625 -35.61132812 11.0703125 C-35.59959749 8.44265014 -35.58318228 5.81510462 -35.5625 3.1875 C-23.57501968 0.64759355 -12.23350461 -0.20412711 0 0 Z " fill="#164A73" transform="translate(44.5625,46.8125)"/>
<path d="M0 0 C0.77943466 0.00222061 1.55886932 0.00444122 2.36192322 0.00672913 C3.68317955 0.00684242 3.68317955 0.00684242 5.03112793 0.00695801 C5.98841293 0.01211929 6.94569794 0.01728058 7.93199158 0.02259827 C9.39480812 0.02472069 9.39480812 0.02472069 10.88717651 0.02688599 C14.01542675 0.03250319 17.14360656 0.04505859 20.27183533 0.05775452 C22.38706867 0.0627673 24.50230313 0.06733059 26.61753845 0.07142639 C31.81482829 0.0824782 37.01207678 0.09923305 42.20933533 0.12025452 C42.2398123 1.56283131 42.26157715 3.00559398 42.27964783 4.44837952 C42.29269958 5.25178772 42.30575134 6.05519592 42.31919861 6.88294983 C42.1624805 10.07442701 41.24506248 11.67738193 39.20933533 14.12025452 C37.78945077 15.27597451 36.36776575 16.4296474 34.93199158 17.56556702 C32.05965433 20.1578351 29.81239331 23.23086756 27.43589783 26.27259827 C24.9409666 29.463484 22.40389323 32.61436281 19.83433533 35.74525452 C18.58523376 37.28052795 18.58523376 37.28052795 17.31089783 38.84681702 C16.6173822 39.59705139 15.92386658 40.34728577 15.20933533 41.12025452 C14.54933533 41.12025452 13.88933533 41.12025452 13.20933533 41.12025452 C13.20933533 41.78025452 13.20933533 42.44025452 13.20933533 43.12025452 C23.76933533 43.12025452 34.32933533 43.12025452 45.20933533 43.12025452 C44.33960963 47.46888303 43.26184092 50.28296144 41.20933533 54.12025452 C34.67654747 54.14552454 28.14377212 54.16308744 21.61094666 54.17518616 C19.38665801 54.18022768 17.1623727 54.18706074 14.93809509 54.19569397 C11.74855224 54.2077675 8.55905304 54.21348447 5.36949158 54.21791077 C3.86794273 54.22565269 3.86794273 54.22565269 2.33605957 54.23355103 C1.41518051 54.23362656 0.49430145 54.23370209 -0.45448303 54.23377991 C-1.26944748 54.23600052 -2.08441193 54.23822113 -2.92407227 54.24050903 C-4.79066467 54.12025452 -4.79066467 54.12025452 -5.79066467 53.12025452 C-6.47042309 49.11054034 -6.62584703 45.53620983 -4.52113342 41.96791077 C-3.02465648 40.1874309 -1.60226998 38.57986397 0.20933533 37.12025452 C0.86933533 37.12025452 1.52933533 37.12025452 2.20933533 37.12025452 C2.47746033 36.5363092 2.74558533 35.95236389 3.02183533 35.35072327 C4.22156988 33.09727448 5.53950674 31.35723196 7.20933533 29.43275452 C7.72496033 28.83076233 8.24058533 28.22877014 8.77183533 27.60853577 C10.20933533 26.12025452 10.20933533 26.12025452 12.20933533 25.12025452 C12.76621033 24.10962952 13.32308533 23.09900452 13.89683533 22.05775452 C16.20933533 18.12025452 16.20933533 18.12025452 23.20933533 10.12025452 C13.63933533 10.12025452 4.06933533 10.12025452 -5.79066467 10.12025452 C-2.4725967 0.16605059 -2.4725967 0.16605059 0 0 Z " fill="#527FA1" transform="translate(69.79066467285156,46.87974548339844)"/>
<path d="M0 0 C3 1 3 1 4 3 C4.72780519 7.37510166 4.89911971 11.33423276 2.75390625 15.30859375 C0.9418603 17.65630224 -0.98638929 19.82292274 -3 22 C-4.04800781 23.25683594 -4.04800781 23.25683594 -5.1171875 24.5390625 C-10.15610365 30.47458294 -15.33622135 34.98947356 -22 39 C-22.90516357 39.54769043 -22.90516357 39.54769043 -23.82861328 40.10644531 C-44.70257665 52.52519728 -65.54092949 54.82709246 -89 49 C-104.95513814 44.54740331 -118.61921895 34.75202545 -129 22 C-129.50789063 21.41734375 -130.01578125 20.8346875 -130.5390625 20.234375 C-134 16.25139665 -134 16.25139665 -134 14 C-129.84429639 13.36715173 -126.13994501 13.18501083 -122 14 C-119.25215438 16.19049957 -117.3212116 18.55135358 -115.16015625 21.31640625 C-111.45883697 25.9146094 -106.8250922 29.88955914 -101.296875 32.0625 C-99 33 -99 33 -98 35 C-82.88565349 43.63676943 -63.53998869 43.37097194 -47 40 C-43.97257166 39.05234621 -41.04839795 37.99594828 -38.109375 36.8046875 C-36 36 -36 36 -34 36 C-34 35.34 -34 34.68 -34 34 C-31.35261084 32.5393715 -30.10551666 32 -27 32 C-27 31.01 -27 30.02 -27 29 C-25.20703125 27.31640625 -25.20703125 27.31640625 -22.8125 25.5625 C-21.9875 24.94375 -21.1625 24.325 -20.3125 23.6875 C-18.64957895 22.47401707 -16.98239031 21.26637441 -15.3125 20.0625 C-9.90978864 15.24386554 -6.13403737 8.80615167 -2.19921875 2.78515625 C-1 1 -1 1 0 0 Z " fill="#A8A8A8" transform="translate(160,126)"/>
<path d="M0 0 C2.64 0 5.28 0 8 0 C12.58255607 9.03163963 16.71611339 17.93640496 19.9375 27.546875 C20.81260065 29.99634055 20.81260065 29.99634055 22.4387207 31.39331055 C24.2066987 33.21271058 25.02323872 34.84371025 26.04296875 37.16015625 C26.39423828 37.95357422 26.74550781 38.74699219 27.10742188 39.56445312 C27.46384766 40.38880859 27.82027344 41.21316406 28.1875 42.0625 C28.55552734 42.89072266 28.92355469 43.71894531 29.30273438 44.57226562 C32 50.72243159 32 50.72243159 32 53 C27.05 53 22.1 53 17 53 C15.02 47.555 15.02 47.555 13 42 C4.42 42 -4.16 42 -13 42 C-14.32 45.63 -15.64 49.26 -17 53 C-21.62 53 -26.24 53 -31 53 C-29.68141346 46.99839219 -27.75721892 41.73081606 -25.125 36.1875 C-24.78597656 35.43791016 -24.44695312 34.68832031 -24.09765625 33.91601562 C-22.22789798 29.93833597 -20.80912445 27.39863276 -17 25 C-16.34 24.01 -15.68 23.02 -15 22 C-14.01 22 -13.02 22 -12 22 C-11.67 21.01 -11.34 20.02 -11 19 C-9.68 19.33 -8.36 19.66 -7 20 C-6.67 18.35 -6.34 16.7 -6 15 C-4.68 14.67 -3.36 14.34 -2 14 C-2.65503282 18.05819183 -3.94559121 21.53971282 -5.5625 25.3125 C-6.366875 27.189375 -7.17125 29.06625 -8 31 C-2.72 31 2.56 31 8 31 C7.4225 29.9275 6.845 28.855 6.25 27.75 C1.72304374 18.58291356 -0.72772127 10.26895568 0 0 Z " fill="#124165" transform="translate(147,48)"/>
<path d="M0 0 C2.96404505 2.80804268 5.44499019 5.18315774 7 9 C7.66 9 8.32 9 9 9 C9.33 11.97 9.66 14.94 10 18 C58.18 18 106.36 18 156 18 C156 17.01 156 16.02 156 15 C158.97 15 161.94 15 165 15 C165 17.97 165 20.94 165 24 C164.01 24 163.02 24 162 24 C161.690625 24.78375 161.38125 25.5675 161.0625 26.375 C160 29 160 29 159 31 C158.34 31 157.68 31 157 31 C154.1096057 27.22025361 153.85803063 24.65917673 154 20 C152.53589188 20.10597 152.53589188 20.10597 151.04220581 20.21408081 C136.74224107 21.16811688 122.45902939 21.14572947 108.1328125 21.1328125 C105.47769107 21.13348744 102.82257103 21.1344578 100.16744995 21.13571167 C94.64238983 21.13751574 89.11734321 21.1351701 83.59228516 21.13037109 C77.2129202 21.12489394 70.83358703 21.12672302 64.4542228 21.1321975 C58.28296304 21.13727988 52.11171737 21.13674656 45.94045639 21.13381577 C43.32572297 21.13314872 40.71098873 21.13396718 38.09625626 21.13629532 C34.45884264 21.13882719 30.82149101 21.1349754 27.18408203 21.12939453 C26.10465332 21.13141876 25.02522461 21.13344299 23.91308594 21.13552856 C22.42930954 21.13129883 22.42930954 21.13129883 20.91555786 21.12698364 C20.0577025 21.12660662 19.19984715 21.12622959 18.31599617 21.12584114 C16.08062459 21.00438079 14.14454424 20.62338489 12 20 C12 21.32 12 22.64 12 24 C8.7 24 5.4 24 2 24 C0.03441367 15.89195639 -0.21594101 8.32572568 0 0 Z " fill="#C0C0C0" transform="translate(11,88)"/>
<path d="M0 0 C10.23 0 20.46 0 31 0 C31 3.63 31 7.26 31 11 C29.35 11 27.7 11 26 11 C25.896875 11.515625 25.79375 12.03125 25.6875 12.5625 C24.75736134 15.86026435 23.38604488 18.86633332 22 22 C26.95 22 31.9 22 37 22 C37 25.63 37 29.26 37 33 C32.57097701 33.12433553 28.14289934 33.21467969 23.71264648 33.2746582 C22.20823452 33.29968061 20.70394265 33.33371033 19.19995117 33.37719727 C5.08482143 33.77487245 5.08482143 33.77487245 0.47265625 30.48046875 C-0.75130859 29.25263672 -0.75130859 29.25263672 -2 28 C0.07553648 27.4465236 1.84365964 27 4 27 C4 27.66 4 28.32 4 29 C4.66 29.33 5.32 29.66 6 30 C6.33 27.69 6.66 25.38 7 23 C5.2984375 23.0309375 5.2984375 23.0309375 3.5625 23.0625 C0 23 0 23 -1 22 C-1 18.04 -1 14.08 -1 10 C9.23 10 19.46 10 30 10 C30 7.03 30 4.06 30 1 C20.1 1 10.2 1 0 1 C0 0.67 0 0.34 0 0 Z " fill="#587B97" transform="translate(23,68)"/>
<path d="M0 0 C1.93166016 0.01740234 1.93166016 0.01740234 3.90234375 0.03515625 C5.19269531 0.04417969 6.48304688 0.05320313 7.8125 0.0625 C8.81152344 0.07410156 9.81054688 0.08570313 10.83984375 0.09765625 C10.83984375 0.42765625 10.83984375 0.75765625 10.83984375 1.09765625 C8.52984375 1.09765625 6.21984375 1.09765625 3.83984375 1.09765625 C4.80441806 10.73070757 6.28437022 18.6163243 10.96484375 27.1484375 C11.83984375 29.09765625 11.83984375 29.09765625 11.83984375 32.09765625 C6.55984375 32.09765625 1.27984375 32.09765625 -4.16015625 32.09765625 C-3.41145833 29.62369792 -2.66276042 27.14973958 -1.9140625 24.67578125 C-1.27547131 22.4919979 -0.69239792 20.30930127 -0.16015625 18.09765625 C-0.82015625 18.09765625 -1.48015625 18.09765625 -2.16015625 18.09765625 C-2.49015625 19.08765625 -2.82015625 20.07765625 -3.16015625 21.09765625 C-4.48015625 21.09765625 -5.80015625 21.09765625 -7.16015625 21.09765625 C-8.64007783 22.32488366 -8.64007783 22.32488366 -10.16015625 24.09765625 C-12.09078408 25.93761924 -14.01182763 27.48640978 -16.16015625 29.09765625 C-17.15015625 28.76765625 -18.14015625 28.43765625 -19.16015625 28.09765625 C-20.40927292 20.44681667 -20.25069051 12.82324639 -20.16015625 5.09765625 C-19.35578125 4.80890625 -18.55140625 4.52015625 -17.72265625 4.22265625 C-15.02750945 3.36503057 -15.02750945 3.36503057 -14.16015625 1.09765625 C-13.44988281 1.10925781 -12.73960937 1.12085938 -12.0078125 1.1328125 C-11.08871094 1.14183594 -10.16960937 1.15085938 -9.22265625 1.16015625 C-7.84787109 1.17755859 -7.84787109 1.17755859 -6.4453125 1.1953125 C-3.39381662 1.06490669 -3.36439512 0.10396771 0 0 Z " fill="#1E537F" transform="translate(143.16015625,46.90234375)"/>
<path d="M0 0 C10.56 0 21.12 0 32 0 C28.55848479 16.06040432 28.55848479 16.06040432 23.25 20.875 C22.16993336 21.94596998 21.09050336 23.0175824 20.01171875 24.08984375 C19.23320557 24.83596924 19.23320557 24.83596924 18.43896484 25.59716797 C16.5362044 27.45214956 14.79408736 29.42304848 13.0625 31.4375 C12.53140625 32.04464844 12.0003125 32.65179688 11.453125 33.27734375 C10.4773574 34.4341005 9.52932696 35.6147836 8.609375 36.81640625 C7.3125 38.5 7.3125 38.5 5 41 C3.68 41 2.36 41 1 41 C1.52258043 36.58973792 3.06852006 34.21008836 5.875 30.8125 C6.57367188 29.95269531 7.27234375 29.09289062 7.9921875 28.20703125 C10 26 10 26 13 24 C13.86625 22.453125 13.86625 22.453125 14.75 20.875 C17 17 17 17 24 9 C14.43 9 4.86 9 -5 9 C-4.34 6.69 -3.68 4.38 -3 2 C-2.01 2 -1.02 2 0 2 C0 1.34 0 0.68 0 0 Z " fill="#164F7D" transform="translate(69,48)"/>
<path d="M0 0 C4.41632177 -0.14509751 8.83203193 -0.23400818 13.25 -0.3125 C14.50425781 -0.35439453 15.75851563 -0.39628906 17.05078125 -0.43945312 C18.85869141 -0.46362305 18.85869141 -0.46362305 20.703125 -0.48828125 C22.36843262 -0.52755737 22.36843262 -0.52755737 24.06738281 -0.56762695 C27 0 27 0 29.33105469 2.34301758 C31 5 31 5 32 8 C32.66 8.33 33.32 8.66 34 9 C34.268125 8.2575 34.53625 7.515 34.8125 6.75 C35.98232553 4.04093035 36.91312362 2.08687638 39 0 C41.6875 -0.25 41.6875 -0.25 44 0 C42.87387279 3.27600644 41.4281214 5.82892486 39.4375 8.625 C36.28297404 13.46812516 36.11447034 18.33892138 36 24 C34.02 24 32.04 24 30 24 C29.99613281 22.96552734 29.99613281 22.96552734 29.9921875 21.91015625 C29.71490397 15.17216651 28.39313528 11.13271484 24.27734375 5.77734375 C23 4 23 4 23 2 C22.34 2 21.68 2 21 2 C21 2.99 21 3.98 21 5 C18.36 5 15.72 5 13 5 C13 11.27 13 17.54 13 24 C11.02 24 9.04 24 7 24 C7 17.73 7 11.46 7 5 C4.69 5 2.38 5 0 5 C0 3.35 0 1.7 0 0 Z " fill="#979797" transform="translate(136,114)"/>
<path d="M0 0 C5.28 0 10.56 0 16 0 C16 0.66 16 1.32 16 2 C16.639375 2.309375 17.27875 2.61875 17.9375 2.9375 C20 4 20 4 21 5 C21.41302262 9.64650451 20.76673742 11.39121206 18 15 C18.10417827 17.00339546 18.10417827 17.00339546 19 19 C19.350625 19.9075 19.70125 20.815 20.0625 21.75 C20.5265625 22.86375 20.5265625 22.86375 21 24 C18.69 24 16.38 24 14 24 C13.608125 23.030625 13.21625 22.06125 12.8125 21.0625 C11.32405113 17.77823609 11.32405113 17.77823609 8.3125 17.125 C7.549375 17.08375 6.78625 17.0425 6 17 C6 19.31 6 21.62 6 24 C4.02 24 2.04 24 0 24 C0 16.08 0 8.16 0 0 Z " fill="#BCBCBC" transform="translate(103,114)"/>
<path d="M0 0 C52.47 0 104.94 0 159 0 C159 0.33 159 0.66 159 1 C145.8 1 132.6 1 119 1 C119 1.66 119 2.32 119 3 C110.09 3 101.18 3 92 3 C91.67 3.99 91.34 4.98 91 6 C87.0205267 5.86185777 83.04151585 5.71320326 79.0625 5.5625 C77.35803711 5.50352539 77.35803711 5.50352539 75.61914062 5.44335938 C74.53955078 5.40146484 73.45996094 5.35957031 72.34765625 5.31640625 C70.84730835 5.26141968 70.84730835 5.26141968 69.31665039 5.20532227 C67 5 67 5 66 4 C64.52749355 3.87767356 63.04934289 3.8222544 61.57202148 3.79467773 C60.16067177 3.7647599 60.16067177 3.7647599 58.72080994 3.73423767 C57.69790359 3.71752518 56.67499725 3.70081268 55.62109375 3.68359375 C54.57929459 3.66281265 53.53749542 3.64203156 52.46412659 3.62062073 C49.12198753 3.55500943 45.77976715 3.49618669 42.4375 3.4375 C40.17772582 3.39432578 37.91795999 3.35071186 35.65820312 3.30664062 C30.10555579 3.19931633 24.55282679 3.09757188 19 3 C19 2.67 19 2.34 19 2 C12.73 1.67 6.46 1.34 0 1 C0 0.67 0 0.34 0 0 Z " fill="#EBF3F6" transform="translate(15,1)"/>
<path d="M0 0 C11.88 0 23.76 0 36 0 C34.58974359 7.05128205 34.58974359 7.05128205 32 10 C29.07880063 10.45487834 26.74486333 10.58565495 23.83203125 10.48828125 C22.63981209 10.47766914 22.63981209 10.47766914 21.42350769 10.46684265 C18.88554639 10.43885874 16.34979393 10.3761184 13.8125 10.3125 C12.09182875 10.28742205 10.3711229 10.26460799 8.65039062 10.24414062 C4.43274303 10.18901967 0.21674593 10.10272412 -4 10 C-2.68 6.7 -1.36 3.4 0 0 Z " fill="#125184" transform="translate(79,90)"/>
<path d="M0 0 C1.98 0 3.96 0 6 0 C6.06058594 1.14339844 6.12117188 2.28679687 6.18359375 3.46484375 C6.26798428 4.95574305 6.35263302 6.44662775 6.4375 7.9375 C6.47681641 8.69224609 6.51613281 9.44699219 6.55664062 10.22460938 C6.44038024 13.91944187 6.44038024 13.91944187 8 17 C9.98 17 11.96 17 14 17 C14.33 11.39 14.66 5.78 15 0 C17.31 0 19.62 0 22 0 C22.10871967 2.54283234 22.18762401 5.08095088 22.25 7.625 C22.30027344 8.69427734 22.30027344 8.69427734 22.3515625 9.78515625 C22.44719726 14.99725084 21.44758641 17.87033714 18 22 C13.97685134 24.68209911 10.72780081 24.68843415 6 24 C2.50109996 21.88608123 1.29421314 20.88263941 0 17 C-0.07973476 15.66474283 -0.10771338 14.32587917 -0.09765625 12.98828125 C-0.09443359 12.23095703 -0.09121094 11.47363281 -0.08789062 10.69335938 C-0.07951172 9.90767578 -0.07113281 9.12199219 -0.0625 8.3125 C-0.05798828 7.51521484 -0.05347656 6.71792969 -0.04882812 5.89648438 C-0.0370585 3.93095743 -0.01912348 1.96546915 0 0 Z " fill="#B6B6B6" transform="translate(77,114)"/>
<path d="M0 0 C5.94 0 11.88 0 18 0 C18 1.65 18 3.3 18 5 C14.04 5 10.08 5 6 5 C6 6.32 6 7.64 6 9 C9.63 9 13.26 9 17 9 C17 10.65 17 12.3 17 14 C13.37 14 9.74 14 6 14 C6 15.65 6 17.3 6 19 C10.29 19 14.58 19 19 19 C19 20.65 19 22.3 19 24 C12.73 24 6.46 24 0 24 C0 16.08 0 8.16 0 0 Z " fill="#999999" transform="translate(31,114)"/>
<path d="M0 0 C0.85722656 0.01546875 1.71445312 0.0309375 2.59765625 0.046875 C4.9375 0.25 4.9375 0.25 7.9375 1.25 C7.9375 2.9 7.9375 4.55 7.9375 6.25 C6.9475 6.25 5.9575 6.25 4.9375 6.25 C4.9375 5.59 4.9375 4.93 4.9375 4.25 C2.2975 4.58 -0.3425 4.91 -3.0625 5.25 C-3.0625 6.24 -3.0625 7.23 -3.0625 8.25 C-2.37542969 8.51554687 -1.68835937 8.78109375 -0.98046875 9.0546875 C-0.07941406 9.40789062 0.82164063 9.76109375 1.75 10.125 C2.64332031 10.47304687 3.53664063 10.82109375 4.45703125 11.1796875 C6.9375 12.25 6.9375 12.25 9.9375 14.25 C9.69249132 17.84346057 9.301206 19.80416683 7 22.625 C2.69566308 24.90893388 -1.27564685 24.91938109 -6.0625 24.25 C-8.37109375 23.2265625 -8.37109375 23.2265625 -10.0625 22.25 C-9.7325 20.6 -9.4025 18.95 -9.0625 17.25 C-4.7725 17.91 -0.4825 18.57 3.9375 19.25 C3.9375 17.93 3.9375 16.61 3.9375 15.25 C3.03257813 15.19392578 3.03257813 15.19392578 2.109375 15.13671875 C-1.36382703 14.85101987 -4.39142959 14.52824871 -7.625 13.1875 C-9.59358169 10.53419425 -9.54469499 8.42513074 -9.59375 5.1875 C-9.0625 3.25 -9.0625 3.25 -7.34765625 1.515625 C-4.66250509 0.02846436 -3.04831061 -0.09195507 0 0 Z " fill="#898988" transform="translate(18.0625,113.75)"/>
<path d="M0 0 C1.05832031 -0.02578125 2.11664063 -0.0515625 3.20703125 -0.078125 C6.48137524 0.28235324 7.79749318 1.05096225 10.1875 3.25 C9.5275 4.57 8.8675 5.89 8.1875 7.25 C7.671875 7.085 7.15625 6.92 6.625 6.75 C3.41067332 6.09065094 0.45903915 6.06824783 -2.8125 6.25 C-5.17660488 8.18731528 -5.17660488 8.18731528 -5.125 11.6875 C-5.12458888 15.11638914 -5.12458888 15.11638914 -3.5859375 16.9921875 C-1.20458555 18.68116399 0.03342866 18.39050413 2.875 17.9375 C3.68324219 17.81761719 4.49148437 17.69773438 5.32421875 17.57421875 C5.93910156 17.46722656 6.55398437 17.36023438 7.1875 17.25 C7.1875 17.91 7.1875 18.57 7.1875 19.25 C7.8475 19.25 8.5075 19.25 9.1875 19.25 C8.1875 22.25 8.1875 22.25 6.625 23.4375 C1.97692573 24.98685809 -2.17704264 24.94052644 -6.625 23.0625 C-9.92592599 20.32744704 -11.52077797 18.1958821 -12.16796875 13.87890625 C-12.42816662 9.14611798 -12.4060312 6.99571868 -9.375 3.1875 C-8.529375 2.548125 -7.68375 1.90875 -6.8125 1.25 C-5.01828481 -0.54421519 -2.42217074 0.03514637 0 0 Z " fill="#A2A2A2" transform="translate(63.8125,113.75)"/>
<path d="M0 0 C10.23 0 20.46 0 31 0 C31 2.97 31 5.94 31 9 C20.77 9 10.54 9 0 9 C0 12.63 0 16.26 0 20 C-0.33 20 -0.66 20 -1 20 C-1.33 16.37 -1.66 12.74 -2 9 C2.43076923 5.92307692 2.43076923 5.92307692 5.3125 6.3125 C5.869375 6.539375 6.42625 6.76625 7 7 C7 5.02 7 3.04 7 1 C4.69 1 2.38 1 0 1 C0 0.67 0 0.34 0 0 Z " fill="#0C3A5F" transform="translate(22,69)"/>
<path d="M0 0 C2.64 0 5.28 0 8 0 C11.85492134 6.46631966 13.31328977 12.42883064 13 20 C12.36284686 21.67817106 11.69827722 23.34632798 11 25 C11 26.32 11 27.64 11 29 C10.67 29.66 10.34 30.32 10 31 C3.66151066 25.26517631 0.40489638 16.14529863 -0.25390625 7.7734375 C-0.25054178 5.1693357 -0.1840474 2.59711337 0 0 Z " fill="#0B395B" transform="translate(147,48)"/>
<path d="M0 0 C2.97 0 5.94 0 9 0 C10 3 10 3 8.48828125 6.4765625 C7.77233128 7.86421834 7.04651873 9.24681656 6.3125 10.625 C5.56752374 12.06433566 4.82402367 13.50443637 4.08203125 14.9453125 C3.72189941 15.64043945 3.36176758 16.33556641 2.99072266 17.05175781 C1.1687787 20.63458502 -0.41724891 24.30691412 -2 28 C-2.99 27.67 -3.98 27.34 -5 27 C-6.24911667 19.34916042 -6.09053426 11.72559014 -6 4 C-4.7934375 3.566875 -4.7934375 3.566875 -3.5625 3.125 C-0.8673532 2.26737432 -0.8673532 2.26737432 0 0 Z " fill="#F4F6F4" transform="translate(129,48)"/>
<path d="M0 0 C7.59 0 15.18 0 23 0 C20.4160149 9.04394786 20.4160149 9.04394786 18 11 C14.92265982 11.48339268 11.91741268 11.37486888 8.8125 11.25 C7.96751953 11.23195313 7.12253906 11.21390625 6.25195312 11.1953125 C4.16748427 11.14820586 2.08359856 11.07646233 0 11 C0 7.37 0 3.74 0 0 Z " fill="#F3F4F5" transform="translate(23,79)"/>
<path d="M0 0 C9 0 9 0 11 1 C10.66471299 6.87634606 8.32972972 9.40601258 4.375 13.375 C3.27663579 14.51885186 2.17897645 15.663381 1.08203125 16.80859375 C0.5504541 17.35628418 0.01887695 17.90397461 -0.52880859 18.46826172 C-2.39145957 20.40757009 -4.17390288 22.40799466 -5.9375 24.4375 C-6.46859375 25.04464844 -6.9996875 25.65179688 -7.546875 26.27734375 C-8.5226426 27.4341005 -9.47067304 28.6147836 -10.390625 29.81640625 C-11.6875 31.5 -11.6875 31.5 -14 34 C-15.32 34 -16.64 34 -18 34 C-17.47741957 29.58973792 -15.93147994 27.21008836 -13.125 23.8125 C-12.42632812 22.95269531 -11.72765625 22.09289062 -11.0078125 21.20703125 C-9 19 -9 19 -6 17 C-5.05111579 15.29855244 -4.10464771 13.5955788 -3.18359375 11.87890625 C-1.90253001 9.84527041 -0.48303623 8.34713704 1.25 6.6875 C2.1575 5.800625 3.065 4.91375 4 4 C4 3.34 4 2.68 4 2 C2.68 1.34 1.36 0.68 0 0 Z " fill="#1B5482" transform="translate(88,55)"/>
<path d="M0 0 C9.9 0 19.8 0 30 0 C29.34 1.32 28.68 2.64 28 4 C28 5.32 28 6.64 28 8 C22.15111957 9.01894076 16.49080831 9.11798453 10.5625 9.0625 C9.64017578 9.05798828 8.71785156 9.05347656 7.76757812 9.04882812 C5.51164952 9.03713938 3.25586033 9.02075455 1 9 C1.33 6.36 1.66 3.72 2 1 C1.34 0.67 0.68 0.34 0 0 Z " fill="#083A60" transform="translate(28,48)"/>
<path d="M0 0 C2.25 -0.3125 2.25 -0.3125 5 0 C7.53838677 2.60889751 8.84740317 4.54220951 10 8 C10.66 8.33 11.32 8.66 12 9 C12.268125 8.2575 12.53625 7.515 12.8125 6.75 C13.98232553 4.04093035 14.91312362 2.08687638 17 0 C19.6875 -0.25 19.6875 -0.25 22 0 C20.87387279 3.27600644 19.4281214 5.82892486 17.4375 8.625 C14.28297404 13.46812516 14.11447034 18.33892138 14 24 C12.02 24 10.04 24 8 24 C7.99742187 23.31035156 7.99484375 22.62070313 7.9921875 21.91015625 C7.71830537 15.25482058 6.47256663 11.24236333 2.375 5.97265625 C0.96411435 3.94851632 0.4311409 2.40899976 0 0 Z " fill="#838383" transform="translate(158,114)"/>
<path d="M0 0 C8.58 0 17.16 0 26 0 C26.99 2.31 27.98 4.62 29 7 C28.34 7 27.68 7 27 7 C27 6.01 27 5.02 27 4 C23.74566066 5.5496854 20.89231886 7.08076086 18 9.25 C15 11 15 11 12.0625 11.125 C7.99175892 9.62962573 4.8013199 7.33174734 2 4 C2 3.01 2 2.02 2 1 C1.34 0.67 0.68 0.34 0 0 Z " fill="#EDF3F5" transform="translate(134,89)"/>
<path d="M0 0 C7.11008111 -0.4820394 7.11008111 -0.4820394 11 1.625 C13 4 13 4 13.5 7 C12.95641357 10.26151855 11.96293755 11.43964667 10 14 C10.10417827 16.00339546 10.10417827 16.00339546 11 18 C11.350625 18.9075 11.70125 19.815 12.0625 20.75 C12.5265625 21.86375 12.5265625 21.86375 13 23 C10.69 23 8.38 23 6 23 C5.608125 22.030625 5.21625 21.06125 4.8125 20.0625 C3.32405113 16.77823609 3.32405113 16.77823609 0.3125 16.125 C-0.450625 16.08375 -1.21375 16.0425 -2 16 C-2 17.65 -2 19.3 -2 21 C-3.0625 19.1875 -3.0625 19.1875 -4 17 C-3.505 15.515 -3.505 15.515 -3 14 C-0.0625 12.875 -0.0625 12.875 3 12 C3.66 11.67 4.32 11.34 5 11 C5 9.02 5 7.04 5 5 C2.03 4.67 -0.94 4.34 -4 4 C-3.67 3.34 -3.34 2.68 -3 2 C-2.01 2 -1.02 2 0 2 C0 1.34 0 0.68 0 0 Z " fill="#B4B4B4" transform="translate(111,115)"/>
<path d="M0 0 C1.26328125 0.03609375 2.5265625 0.0721875 3.828125 0.109375 C5.27445313 0.17898437 5.27445313 0.17898437 6.75 0.25 C6.75 3.22 6.75 6.19 6.75 9.25 C-0.84 9.25 -8.43 9.25 -16.25 9.25 C-14.6 7.6 -12.95 5.95 -11.25 4.25 C-10.63640625 3.49203125 -10.0228125 2.7340625 -9.390625 1.953125 C-6.27985298 -0.5218688 -3.90675316 -0.14469456 0 0 Z " fill="#0C395E" transform="translate(52.25,90.75)"/>
<path d="M0 0 C0.66 0 1.32 0 2 0 C2.33773437 0.74765625 2.67546875 1.4953125 3.0234375 2.265625 C3.46945313 3.25046875 3.91546875 4.2353125 4.375 5.25 C4.81585938 6.22453125 5.25671875 7.1990625 5.7109375 8.203125 C6.484092 9.88063598 7.29149316 11.54385973 8.1640625 13.171875 C9 15 9 15 9 18 C3.72 18 -1.56 18 -7 18 C-5.20762152 11.54743746 -3.16695855 5.89709524 0 0 Z " fill="#DCE6ED" transform="translate(146,61)"/>
<path d="M0 0 C2.96404505 2.80804268 5.44499019 5.18315774 7 9 C7.66 9 8.32 9 9 9 C11.29612756 18.41002278 11.29612756 18.41002278 11 23 C8.03 23 5.06 23 2 23 C-0.13480153 15.26134446 -0.20483028 7.99976044 0 0 Z " fill="#818181" transform="translate(11,88)"/>
<path d="M0 0 C0.33 -0.66 0.66 -1.32 1 -2 C1.33 -1.01 1.66 -0.02 2 1 C1.01 1 0.02 1 -1 1 C-1 1.66 -1 2.32 -1 3 C1.64 3.33 4.28 3.66 7 4 C7.3690205 18.78132118 7.3690205 18.78132118 5 25 C4.67 25 4.34 25 4 25 C4 19.06 4 13.12 4 7 C1.69 7 -0.62 7 -3 7 C-3.33 7.99 -3.66 8.98 -4 10 C-6.90212286 6.61418999 -8.29395475 4.26511313 -10 0 C-16.93 -0.495 -16.93 -0.495 -24 -1 C-24 -1.33 -24 -1.66 -24 -2 C-6.27272727 -3.92045455 -6.27272727 -3.92045455 0 0 Z " fill="#C0CBD3" transform="translate(164,48)"/>
<path d="M0 0 C1.98 0 3.96 0 6 0 C6 7.92 6 15.84 6 24 C4.35 24 2.7 24 1 24 C0 23 0 23 -0.11352539 20.77514648 C-0.10828857 19.81680908 -0.10305176 18.85847168 -0.09765625 17.87109375 C-0.09443359 16.83662109 -0.09121094 15.80214844 -0.08789062 14.73632812 C-0.07951172 13.64771484 -0.07113281 12.55910156 -0.0625 11.4375 C-0.05798828 10.34501953 -0.05347656 9.25253906 -0.04882812 8.12695312 C-0.03699826 5.41791505 -0.02051543 2.70898401 0 0 Z " fill="#A4A4A4" transform="translate(127,114)"/>
<path d="M0 0 C2.31 0 4.62 0 7 0 C7.13559675 2.56428515 7.23433188 5.12135216 7.3125 7.6875 C7.35439453 8.40873047 7.39628906 9.12996094 7.43945312 9.87304688 C7.53536515 14.07399356 7.36418622 15.54295836 4.640625 18.9609375 C1.88602141 21.08801305 0.45849437 21.91132066 -3 22 C-5.82363942 21.11257047 -6.74177256 20.43898664 -8.25 17.875 C-8.4975 17.25625 -8.745 16.6375 -9 16 C-8.34 16.33 -7.68 16.66 -7 17 C-5.02 17 -3.04 17 -1 17 C-0.67 11.39 -0.34 5.78 0 0 Z " fill="#CCCCCC" transform="translate(92,114)"/>
<path d="M0 0 C13.86 0.495 13.86 0.495 28 1 C28 1.33 28 1.66 28 2 C21.4 2 14.8 2 8 2 C8.33 2.99 8.66 3.98 9 5 C8.67 5.99 8.34 6.98 8 8 C15.59 8 23.18 8 31 8 C31 8.66 31 9.32 31 10 C19.45 10 7.9 10 -4 10 C-2.68 6.7 -1.36 3.4 0 0 Z " fill="#11466F" transform="translate(79,90)"/>
<path d="M0 0 C14.52 0 29.04 0 44 0 C44 2.97 44 5.94 44 9 C41.525 8.505 41.525 8.505 39 8 C39.66 6.35 40.32 4.7 41 3 C40.34 3 39.68 3 39 3 C38.773125 3.5775 38.54625 4.155 38.3125 4.75 C36.66961977 7.5663661 34.60466773 9.08077114 32 11 C30.875 4.25 30.875 4.25 32 2 C21.77 1.67 11.54 1.34 1 1 C1 1.66 1 2.32 1 3 C0.34 3 -0.32 3 -1 3 C-0.67 2.01 -0.34 1.02 0 0 Z " fill="#446D8D" transform="translate(68,47)"/>
<path d="M0 0 C2.97 0 5.94 0 9 0 C9 2.97 9 5.94 9 9 C8.01 9 7.02 9 6 9 C5.690625 9.78375 5.38125 10.5675 5.0625 11.375 C4 14 4 14 3 16 C2.34 16 1.68 16 1 16 C-0.75 14.1875 -0.75 14.1875 -2 11 C-1.65790204 7.25271156 -0.88917366 3.65264864 0 0 Z " fill="#818181" transform="translate(167,103)"/>
<path d="M0 0 C0.33 0 0.66 0 1 0 C1.11109266 6.85600443 -0.6002358 10.5338744 -5.2109375 15.56640625 C-7 17 -7 17 -10 17 C-10 17.66 -10 18.32 -10 19 C-10.99 19.33 -11.98 19.66 -13 20 C-12.90117534 15.15759168 -12.26276073 12.8512024 -8.75 9.4375 C-7.81027344 8.58285156 -7.81027344 8.58285156 -6.8515625 7.7109375 C-5.0970055 6.08963799 -3.61842543 4.42273168 -2.125 2.5625 C-1.42375 1.716875 -0.7225 0.87125 0 0 Z " fill="#17507C" transform="translate(94,68)"/>
<path d="M0 0 C9 0 9 0 11 1 C11 7.74742227 6.42228951 11.46690141 2 16 C0.68 14.68 -0.64 13.36 -2 12 C-0.54887874 8.6140504 1.41675821 6.58324179 4 4 C4 3.34 4 2.68 4 2 C2.68 1.34 1.36 0.68 0 0 Z " fill="#205886" transform="translate(88,55)"/>
<path d="M0 0 C2.31 0 4.62 0 7 0 C7 0.66 7 1.32 7 2 C7.66 2 8.32 2 9 2 C9 1.34 9 0.68 9 0 C10.32 0 11.64 0 13 0 C12.34 2.31 11.68 4.62 11 7 C10.34 7 9.68 7 9 7 C9 7.66 9 8.32 9 9 C6.03 9 3.06 9 0 9 C0 6.03 0 3.06 0 0 Z " fill="#487190" transform="translate(64,91)"/>
<path d="M0 0 C-4.29 0.99 -8.58 1.98 -13 3 C-13.33 9.6 -13.66 16.2 -14 23 C-14.99 23 -15.98 23 -17 23 C-17 15.41 -17 7.82 -17 0 C-14.9375 -0.185625 -12.875 -0.37125 -10.75 -0.5625 C-9.58984375 -0.66691406 -8.4296875 -0.77132812 -7.234375 -0.87890625 C-4 -1 -4 -1 0 0 Z " fill="#254967" transform="translate(26,50)"/>
<path d="M0 0 C0.33 0 0.66 0 1 0 C1 7.92 1 15.84 1 24 C3.64 24 6.28 24 9 24 C8.67 24.99 8.34 25.98 8 27 C3.38 27 -1.24 27 -6 27 C-6 22.3232567 -5.06180687 21.34015295 -2 18 C-1.67 18 -1.34 18 -1 18 C-0.505 9.09 -0.505 9.09 0 0 Z " fill="#DFDFDF" transform="translate(30,114)"/>
<path d="M0 0 C0.33 0.66 0.66 1.32 1 2 C5.95 2 10.9 2 16 2 C16 5.63 16 9.26 16 13 C11.72922344 13.05794812 7.45854764 13.09357874 3.1875 13.125 C1.97255859 13.14175781 0.75761719 13.15851563 -0.49414062 13.17578125 C-1.65751953 13.18222656 -2.82089844 13.18867187 -4.01953125 13.1953125 C-5.62985229 13.21102295 -5.62985229 13.21102295 -7.27270508 13.22705078 C-10 13 -10 13 -13 11 C-12.39671875 10.62488281 -11.7934375 10.24976562 -11.171875 9.86328125 C-6.6901007 6.99349996 -3.03350913 4.48431785 0 0 Z M-8 11 C-8 11.33 -8 11.66 -8 12 C-0.41 12 7.18 12 15 12 C15 9.03 15 6.06 15 3 C4.73111762 1.94827947 -1.34644218 2.67425172 -8 11 Z " fill="#637D92" transform="translate(44,88)"/>
<path d="M0 0 C10.56 0 21.12 0 32 0 C31.01574101 4.92129494 30.1837982 6.40538913 27 10 C26.67 9.67 26.34 9.34 26 9 C23.66702567 8.95907063 21.33294775 8.95758277 19 9 C19 8.67 19 8.34 19 8 C20.65 7.67 22.3 7.34 24 7 C24 5.02 24 3.04 24 1 C16.08 1 8.16 1 0 1 C0 0.67 0 0.34 0 0 Z " fill="#315F83" transform="translate(83,90)"/>
<path d="M0 0 C-1.26691507 0.67408308 -2.53870749 1.33900497 -3.8125 2 C-4.52019531 2.37125 -5.22789062 2.7425 -5.95703125 3.125 C-8 4 -8 4 -11 4 C-10.67 10.27 -10.34 16.54 -10 23 C-10.66 23.33 -11.32 23.66 -12 24 C-13.7041678 18.84053135 -14.22225605 14.5574667 -14.125 9.0625 C-14.11597656 8.37865234 -14.10695313 7.69480469 -14.09765625 6.99023438 C-14.07438958 5.32666713 -14.03853167 3.66328369 -14 2 C-12.42085985 1.46658816 -10.83645613 0.94874237 -9.25 0.4375 C-8.36828125 0.14746094 -7.4865625 -0.14257812 -6.578125 -0.44140625 C-3.92165684 -1.01697435 -2.52968894 -0.89248371 0 0 Z " fill="#415B71" transform="translate(137,50)"/>
<path d="M0 0 C0.66 0.99 1.32 1.98 2 3 C4.31753588 3.50843062 4.31753588 3.50843062 7.0078125 3.51171875 C7.99394531 3.54716797 8.98007812 3.58261719 9.99609375 3.61914062 C11.54490234 3.65297852 11.54490234 3.65297852 13.125 3.6875 C14.68541016 3.73874023 14.68541016 3.73874023 16.27734375 3.79101562 C18.85145507 3.87367058 21.42521829 3.94276155 24 4 C24.1875 9.765625 24.1875 9.765625 22.5 11.875 C22.005 12.24625 21.51 12.6175 21 13 C20.505 12.01 20.505 12.01 20 11 C20.99 9.02 21.98 7.04 23 5 C4.19 5.495 4.19 5.495 -15 6 C-14.67 4.68 -14.34 3.36 -14 2 C-9.71 2 -5.42 2 -1 2 C-0.67 1.34 -0.34 0.68 0 0 Z " fill="#BFCDD9" transform="translate(38,42)"/>
<path d="M0 0 C4.62 1.32 9.24 2.64 14 4 C14.28571429 19 14.28571429 19 12 25 C11.67 25 11.34 25 11 25 C11 18.73 11 12.46 11 6 C9.370625 5.566875 7.74125 5.13375 6.0625 4.6875 C3.28515625 3.94921875 3.28515625 3.94921875 1 3 C0.67 2.01 0.34 1.02 0 0 Z " fill="#314A5D" transform="translate(157,48)"/>
<path d="M0 0 C1.35156675 1.65191491 2.679762 3.32294092 4 5 C4.45503906 5.51949219 4.91007812 6.03898437 5.37890625 6.57421875 C8.84960534 10.8161843 9.49464281 13.82025588 9.17578125 19.27734375 C9.11777344 19.84582031 9.05976563 20.41429688 9 21 C6.70986347 17.5647952 6.82157027 16.014669 7 12 C6.34 12 5.68 12 5 12 C3.4921875 10.25 3.4921875 10.25 1.875 8 C1.33617187 7.2575 0.79734375 6.515 0.2421875 5.75 C-0.16773438 5.1725 -0.57765625 4.595 -1 4 C-1.10331031 11.42686315 -0.99862699 18.63512596 0 26 C-3.38576908 22.61423092 -3.05034928 18.27905628 -3.09765625 13.6953125 C-3.09108958 12.17184408 -3.07928311 10.64839012 -3.0625 9.125 C-3.05798828 8.34125 -3.05347656 7.5575 -3.04882812 6.75 C-3.03714093 4.83329986 -3.01920908 2.91663952 -3 1 C-2.01 0.67 -1.02 0.34 0 0 Z " fill="#C9D4DC" transform="translate(13,85)"/>
<path d="M0 0 C-0.96099609 0.74443359 -0.96099609 0.74443359 -1.94140625 1.50390625 C-11.37875476 8.86922918 -11.37875476 8.86922918 -19 18 C-21.8203125 18.29296875 -21.8203125 18.29296875 -25.125 18.1875 C-26.22070312 18.16042969 -27.31640625 18.13335937 -28.4453125 18.10546875 C-29.70988281 18.05326172 -29.70988281 18.05326172 -31 18 C-28.09907498 16.06604999 -27.10325263 15.69868059 -23.8125 15.375 C-22.554375 15.25125 -21.29625 15.1275 -20 15 C-19.67 14.01 -19.34 13.02 -19 12 C-16.31040738 9.609251 -13.62843527 7.44160316 -10.6875 5.375 C-8.70614058 4.011255 -8.70614058 4.011255 -8 1 C-4.68510482 -0.74468167 -3.63361056 -1.21120352 0 0 Z " fill="#8F8E8D" transform="translate(56,27)"/>
<path d="M0 0 C1.32 0 2.64 0 4 0 C4 0.66 4 1.32 4 2 C4.78375 2 5.5675 2 6.375 2 C8.91666667 2 11.45833333 2 14 2 C14 2.66 14 3.32 14 4 C14.66 4 15.32 4 16 4 C16.33 5.65 16.66 7.3 17 9 C14.8509548 8.57855998 12.70577212 8.13737951 10.5625 7.6875 C9.36753906 7.44386719 8.17257813 7.20023438 6.94140625 6.94921875 C5.97074219 6.63597656 5.00007812 6.32273437 4 6 C3.67 5.01 3.34 4.02 3 3 C2.01 2.67 1.02 2.34 0 2 C0 1.34 0 0.68 0 0 Z " fill="#909190" transform="translate(147,39)"/>
<path d="M0 0 C-1.37184347 4.06498881 -3.22068459 6.67396561 -6.125 9.8125 C-6.84945312 10.60269531 -7.57390625 11.39289063 -8.3203125 12.20703125 C-8.87460938 12.79871094 -9.42890625 13.39039062 -10 14 C-11.34374179 9.96877462 -10.4530301 7.94393885 -9 4 C-6.2681187 0.32609067 -4.55019829 -0.50557759 0 0 Z " fill="#285877" transform="translate(108,58)"/>
<path d="M0 0 C0.99 0 1.98 0 3 0 C4.175625 1.2065625 4.175625 1.2065625 5.375 2.4375 C7.76606563 5.0887875 7.76606563 5.0887875 10.5625 6.0625 C13.18265398 6.25696281 13.18265398 6.25696281 15.1875 4.0625 C15.785625 3.381875 16.38375 2.70125 17 2 C17.66 2 18.32 2 19 2 C19 1.34 19 0.68 19 0 C19.99 0 20.98 0 22 0 C20.51305058 4.46084826 17.07581328 6.96209336 13 9 C7.82688368 9.32331977 5.01648687 6.72880986 1.3203125 3.47265625 C0 2 0 2 0 0 Z " fill="#2E475C" transform="translate(136,91)"/>
<path d="M0 0 C7.59 0 15.18 0 23 0 C22.34 2.31 21.68 4.62 21 7 C20.67 7 20.34 7 20 7 C20 5.02 20 3.04 20 1 C13.73 1 7.46 1 1 1 C1 3.97 1 6.94 1 10 C6.61 10 12.22 10 18 10 C18 10.33 18 10.66 18 11 C12.06 11 6.12 11 0 11 C0 7.37 0 3.74 0 0 Z " fill="#CFDFEB" transform="translate(23,79)"/>
<path d="M0 0 C3 1 3 1 4.1875 3.25 C5 6 5 6 5 11 C1.04 11 -2.92 11 -7 11 C-6.67 10.01 -6.34 9.02 -6 8 C-4.02 8.495 -4.02 8.495 -2 9 C-0.49667449 4.58830798 -0.49667449 4.58830798 0 0 Z " fill="#103554" transform="translate(172,89)"/>
<path d="M0 0 C2.25 -0.3125 2.25 -0.3125 5 0 C7.375 2.1875 7.375 2.1875 9 5 C8.75 7.8125 8.75 7.8125 8 10 C7.01 10.33 6.02 10.66 5 11 C4.16151196 9.54462432 3.32936066 8.08559627 2.5 6.625 C1.80390625 5.40683594 1.80390625 5.40683594 1.09375 4.1640625 C0 2 0 2 0 0 Z " fill="#898989" transform="translate(158,114)"/>
<path d="M0 0 C1.91595968 -0.08133791 3.83291932 -0.13934367 5.75 -0.1875 C7.35101563 -0.23970703 7.35101563 -0.23970703 8.984375 -0.29296875 C12.30027855 0.02917214 13.59016673 0.77148914 16 3 C15.34 4.32 14.68 5.64 14 7 C10.7 6.34 7.4 5.68 4 5 C4.66 3.68 5.32 2.36 6 1 C3.69 1.33 1.38 1.66 -1 2 C-0.67 1.34 -0.34 0.68 0 0 Z " fill="#B3B3B3" transform="translate(58,114)"/>
<path d="M0 0 C2 3 2 3 1.625 5.6875 C1.41875 6.450625 1.2125 7.21375 1 8 C-2.3 8 -5.6 8 -9 8 C-8.01 7.01 -7.02 6.02 -6 5 C-5.64830932 3.67139075 -5.31229724 2.33841672 -5 1 C-3 0 -3 0 0 0 Z " fill="#F4F4F5" transform="translate(149,70)"/>
<path d="M0 0 C0.33 0.66 0.66 1.32 1 2 C-2.80304814 7.19210472 -6.76158542 12.15609762 -11 17 C-11.99 16.67 -12.98 16.34 -14 16 C-12.625 14 -12.625 14 -11 12 C-10.34 12 -9.68 12 -9 12 C-9 11.34 -9 10.68 -9 10 C-8.34 10 -7.68 10 -7 10 C-6.690625 9.38125 -6.38125 8.7625 -6.0625 8.125 C-5.375 6.75 -4.6875 5.375 -4 4 C-4.99 3.67 -5.98 3.34 -7 3 C-7 2.34 -7 1.68 -7 1 C-3.535 0.505 -3.535 0.505 0 0 Z " fill="#878785" transform="translate(162,138)"/>
<path d="M0 0 C2.33294775 -0.04241723 4.66702567 -0.04092937 7 0 C8 1 8 1 8.0625 3.5625 C8.041875 4.366875 8.02125 5.17125 8 6 C5.29120665 7.35439668 2.99066732 7.06501451 0 7 C0 4.69 0 2.38 0 0 Z " fill="#F6F6F6" transform="translate(109,119)"/>
<path d="M0 0 C0.66 0 1.32 0 2 0 C-0.66941777 6.68821155 -8.34525673 10.24477539 -14.4375 13.5 C-18 15 -18 15 -21 14 C-17.375 11 -17.375 11 -14 11 C-13.67 10.34 -13.34 9.68 -13 9 C-11.59052054 8.1594585 -10.14711412 7.37511266 -8.6875 6.625 C-5.2157721 4.76790111 -2.6904527 2.90568892 0 0 Z " fill="#949494" transform="translate(145,156)"/>
<path d="M0 0 C0.66 0 1.32 0 2 0 C1.56249421 4.81256369 -0.31998921 8.85151697 -4 12 C-7.34757738 12.72189482 -10.43585171 12.35297127 -13.8125 11.9375 C-14.69615234 11.85822266 -15.57980469 11.77894531 -16.49023438 11.69726562 C-18.66553038 11.49737356 -20.83173807 11.26423606 -23 11 C-23 10.67 -23 10.34 -23 10 C-17.06 10 -11.12 10 -5 10 C-4.34 8.68 -3.68 7.36 -3 6 C-2 4 -1 2 0 0 Z " fill="#4A6378" transform="translate(46,80)"/>
<path d="M0 0 C0.66 0.99 1.32 1.98 2 3 C0.62901008 5.95290136 -0.77532627 8.60419752 -3 11 C-4.32 11 -5.64 11 -7 11 C-6.45276317 7.62537285 -5.9451 5.91765 -4 3 C-3.01 2.67 -2.02 2.34 -1 2 C-0.67 1.34 -0.34 0.68 0 0 Z " fill="#16496D" transform="translate(77,78)"/>
<path d="M0 0 C0.99 0 1.98 0 3 0 C3.18175781 0.99902344 3.36351562 1.99804688 3.55078125 3.02734375 C3.80214844 4.31769531 4.05351562 5.60804687 4.3125 6.9375 C4.67794922 8.86916016 4.67794922 8.86916016 5.05078125 10.83984375 C5.52064453 12.40412109 5.52064453 12.40412109 6 14 C6.99 14.33 7.98 14.66 9 15 C9.33 15.99 9.66 16.98 10 18 C8.203125 17.82421875 8.203125 17.82421875 6 17 C4.296875 14.70703125 4.296875 14.70703125 2.75 11.8125 C1.96882812 10.39904297 1.96882812 10.39904297 1.171875 8.95703125 C-0.09993919 5.74782011 -0.22289402 3.41939684 0 0 Z " fill="#123958" transform="translate(10,73)"/>
<path d="M0 0 C0.09243891 5.70480127 -0.71399808 9.22517626 -4.5625 13.5625 C-5.69004005 14.72633912 -6.82998843 15.8788662 -8 17 C-8.33 16.01 -8.66 15.02 -9 14 C-7.68 13.34 -6.36 12.68 -5 12 C-5.20625 11.443125 -5.4125 10.88625 -5.625 10.3125 C-6.11969716 7.26186748 -5.39806485 5.72622646 -4 3 C-1.4137931 0 -1.4137931 0 0 0 Z " fill="#255980" transform="translate(95,68)"/>
<path d="M0 0 C-0.66 1.65 -1.32 3.3 -2 5 C-0.68 5.33 0.64 5.66 2 6 C1.34 7.65 0.68 9.3 0 11 C-0.66 10.67 -1.32 10.34 -2 10 C-1.67 9.34 -1.34 8.68 -1 8 C-5.07964281 9.30155006 -5.07964281 9.30155006 -9 11 C-8.40300869 7.66864109 -7.27987719 5.78724333 -5.0625 3.25 C-4.53785156 2.63640625 -4.01320313 2.0228125 -3.47265625 1.390625 C-2 0 -2 0 0 0 Z " fill="#3F77A0" transform="translate(109,50)"/>
<path d="M0 0 C8.58 0 17.16 0 26 0 C26.99 2.31 27.98 4.62 29 7 C28.34 7 27.68 7 27 7 C27 6.01 27 5.02 27 4 C25.68 4.33 24.36 4.66 23 5 C23.33 4.01 23.66 3.02 24 2 C23.01604248 2.01571045 23.01604248 2.01571045 22.01220703 2.03173828 C19.04984342 2.07322503 16.08754084 2.09930262 13.125 2.125 C12.09246094 2.14175781 11.05992187 2.15851563 9.99609375 2.17578125 C9.00996094 2.18222656 8.02382812 2.18867187 7.0078125 2.1953125 C5.64100342 2.21102295 5.64100342 2.21102295 4.24658203 2.22705078 C2 2 2 2 0 0 Z " fill="#8EA8B8" transform="translate(134,89)"/>
<path d="M0 0 C1.32 0 2.64 0 4 0 C3.34 2.31 2.68 4.62 2 7 C1.34 7 0.68 7 0 7 C0 7.66 0 8.32 0 9 C-1.98 9 -3.96 9 -6 9 C-5.34 7.68 -4.68 6.36 -4 5 C-3.34 5 -2.68 5 -2 5 C-1.34 3.35 -0.68 1.7 0 0 Z " fill="#0F4165" transform="translate(73,91)"/>
<path d="M0 0 C0.99 0.33 1.98 0.66 3 1 C-2 6 -7 11 -12 16 C-11.84948621 11.03304504 -9.1954766 8.85859729 -5.7890625 5.6484375 C-5.19867188 5.10445312 -4.60828125 4.56046875 -4 4 C-3.195625 3.195625 -2.39125 2.39125 -1.5625 1.5625 C-1.046875 1.046875 -0.53125 0.53125 0 0 Z " fill="#9FA09F" transform="translate(39,27)"/>
<path d="M0 0 C2.97 0 5.94 0 9 0 C8.67 2.31 8.34 4.62 8 7 C7.01 6.67 6.02 6.34 5 6 C5.33 5.34 5.66 4.68 6 4 C5.401875 4.226875 4.80375 4.45375 4.1875 4.6875 C3.465625 4.790625 2.74375 4.89375 2 5 C0.25 3.5625 0.25 3.5625 -1 2 C-0.67 1.34 -0.34 0.68 0 0 Z " fill="#073456" transform="translate(21,91)"/>
<path d="M0 0 C2.65777049 2.65777049 3.56953721 5.54304827 5 9 C5.4125 9.680625 5.825 10.36125 6.25 11.0625 C7.34573487 13.89314841 6.65862421 16.10205346 6 19 C4 16 4 16 3 12.875 C2.3313327 9.87488938 2.3313327 9.87488938 0 9 C0 6.03 0 3.06 0 0 Z " fill="#214661" transform="translate(159,58)"/>
<path d="M0 0 C2.97 0 5.94 0 9 0 C9 0.33 9 0.66 9 1 C8.236875 1 7.47375 1 6.6875 1 C3.89579014 1.68891122 3.89579014 1.68891122 3.10546875 3.8125 C2.62262768 5.25844117 2.17764952 6.7176381 1.7734375 8.1875 C1.39058594 9.0846875 1.39058594 9.0846875 1 10 C0.01 10.33 -0.98 10.66 -2 11 C-1.34 7.37 -0.68 3.74 0 0 Z " fill="#868686" transform="translate(167,103)"/>
<path d="M0 0 C0.66 0 1.32 0 2 0 C1.54554036 1.41791408 1.08625056 2.83428046 0.625 4.25 C0.36976563 5.03890625 0.11453125 5.8278125 -0.1484375 6.640625 C-0.95173667 8.86627958 -1.89711662 10.90931672 -3 13 C-3.99 12.67 -4.98 12.34 -6 12 C-5.67 10.68 -5.34 9.36 -5 8 C-4.67 8.66 -4.34 9.32 -4 10 C-4 7.36 -4 4.72 -4 2 C-2.68 2 -1.36 2 0 2 C0 1.34 0 0.68 0 0 Z " fill="#CFDFE7" transform="translate(130,63)"/>
<path d="M0 0 C5.94 0 11.88 0 18 0 C18.33 0.99 18.66 1.98 19 3 C16.20775927 3.08071788 13.41783434 3.14035408 10.625 3.1875 C9.8309375 3.21263672 9.036875 3.23777344 8.21875 3.26367188 C6.14413852 3.29004405 4.06899135 3.15486462 2 3 C1.34 2.01 0.68 1.02 0 0 Z " fill="#C0C0C1" transform="translate(85,175)"/>
<path d="M0 0 C2.31 0.33 4.62 0.66 7 1 C7 2.32 7 3.64 7 5 C3.7 5 0.4 5 -3 5 C-3.33 4.34 -3.66 3.68 -4 3 C-3.01 3 -2.02 3 -1 3 C-0.67 2.01 -0.34 1.02 0 0 Z " fill="#DFDFDD" transform="translate(15,128)"/>
<path d="M0 0 C1.60407328 -0.02708567 3.2082785 -0.04643483 4.8125 -0.0625 C5.70582031 -0.07410156 6.59914063 -0.08570312 7.51953125 -0.09765625 C10 0 10 0 13 1 C13 2.65 13 4.3 13 6 C12.01 6 11.02 6 10 6 C10 5.34 10 4.68 10 4 C8.02 4 6.04 4 4 4 C4.66 3.34 5.32 2.68 6 2 C3.03 1.505 3.03 1.505 0 1 C0 0.67 0 0.34 0 0 Z " fill="#939393" transform="translate(13,114)"/>
<path d="M0 0 C1.4540625 0.0309375 1.4540625 0.0309375 2.9375 0.0625 C0.37321997 4.24132671 -2.08180733 7.18755529 -6.0625 10.0625 C-5.75451674 8.58238629 -5.440982 7.10342675 -5.125 5.625 C-4.95097656 4.80128906 -4.77695313 3.97757813 -4.59765625 3.12890625 C-3.74861631 -0.14950344 -3.55198744 0.07248954 0 0 Z " fill="#174D78" transform="translate(106.0625,47.9375)"/>
<path d="M0 0 C0.99 0.33 1.98 0.66 3 1 C1.08921424 6.73235729 -4.42772844 10.27838361 -9 14 C-7.65070536 10.16336928 -5.92248975 7.34827431 -3.375 4.1875 C-2.42753906 3.00220703 -2.42753906 3.00220703 -1.4609375 1.79296875 C-0.97882813 1.20128906 -0.49671875 0.60960937 0 0 Z " fill="#9F9F9F" transform="translate(155,133)"/>
<path d="M0 0 C0.66 1.32 1.32 2.64 2 4 C1.01 4 0.02 4 -1 4 C-1.10331031 11.42686315 -0.99862699 18.63512596 0 26 C-3.38576908 22.61423092 -3.05034928 18.27905628 -3.09765625 13.6953125 C-3.09108958 12.17184408 -3.07928311 10.64839012 -3.0625 9.125 C-3.05798828 8.34125 -3.05347656 7.5575 -3.04882812 6.75 C-3.03714093 4.83329986 -3.01920908 2.91663952 -3 1 C-2.01 0.67 -1.02 0.34 0 0 Z " fill="#B6B9BB" transform="translate(13,85)"/>
<path d="M0 0 C0.33 1.32 0.66 2.64 1 4 C0.34 4 -0.32 4 -1 4 C-1 5.65 -1 7.3 -1 9 C-3.62113708 9 -5.50935112 8.68707555 -8 8 C-7.04578192 6.85073734 -6.08647955 5.70569459 -5.125 4.5625 C-4.59132813 3.92441406 -4.05765625 3.28632812 -3.5078125 2.62890625 C-2 1 -2 1 0 0 Z " fill="#2C5A7C" transform="translate(82,72)"/>
<path d="M0 0 C0 0.66 0 1.32 0 2 C0.66 2 1.32 2 2 2 C1 5 1 5 -0.625 5.875 C-4.26137889 6.06638836 -6.80655067 4.62685155 -10 3 C-10.33 2.34 -10.66 1.68 -11 1 C-9.88625 1.020625 -8.7725 1.04125 -7.625 1.0625 C-4.58237918 1.01004102 -2.83730029 0 0 0 Z " fill="#B0B0B0" transform="translate(71,131)"/>
<path d="M0 0 C4.95 0 9.9 0 15 0 C14.34 2.31 13.68 4.62 13 7 C12.67 7 12.34 7 12 7 C12 5.35 12 3.7 12 2 C9.03 2 6.06 2 3 2 C2.67 2.99 2.34 3.98 2 5 C2 3.68 2 2.36 2 1 C1.34 0.67 0.68 0.34 0 0 Z " fill="#D9DFE4" transform="translate(164,101)"/>
<path d="M0 0 C2.97 0 5.94 0 9 0 C10 3 10 3 8.5625 6.1875 C7.7890625 7.5796875 7.7890625 7.5796875 7 9 C6.67 7.68 6.34 6.36 6 5 C4.68 4.67 3.36 4.34 2 4 C3.65 3.34 5.3 2.68 7 2 C4.36 2.33 1.72 2.66 -1 3 C-0.67 2.01 -0.34 1.02 0 0 Z " fill="#B1C5D1" transform="translate(129,48)"/>
<path d="M0 0 C-0.55728913 3.34373475 -1.35173889 6.03312999 -3 9 C-5.64 9 -8.28 9 -11 9 C-8 7 -8 7 -5 7 C-5 5.02 -5 3.04 -5 1 C-2 0 -2 0 0 0 Z " fill="#1C4667" transform="translate(60,48)"/>
<path d="M0 0 C2.375 -0.125 2.375 -0.125 5 0 C7 2 7 2 7 6 C8.65 6 10.3 6 12 6 C11.67 6.66 11.34 7.32 11 8 C6.60357652 7.4975516 4.2051018 6.02704059 1 3 C0.67 2.01 0.34 1.02 0 0 Z " fill="#D0DDE5" transform="translate(138,90)"/>
<path d="M0 0 C0.33 1.32 0.66 2.64 1 4 C-0.28627711 5.17260611 -1.57919783 6.3379283 -2.875 7.5 C-3.59429687 8.1496875 -4.31359375 8.799375 -5.0546875 9.46875 C-7 11 -7 11 -9 11 C-9.33 11.66 -9.66 12.32 -10 13 C-10.99 12.34 -11.98 11.68 -13 11 C-12.39671875 10.62488281 -11.7934375 10.24976562 -11.171875 9.86328125 C-6.6901007 6.99349996 -3.03350913 4.48431785 0 0 Z " fill="#90ACC2" transform="translate(44,88)"/>
<path d="M0 0 C0.33 0 0.66 0 1 0 C1.33 1.65 1.66 3.3 2 5 C2.99 5 3.98 5 5 5 C5 4.34 5 3.68 5 3 C5.99 3.33 6.98 3.66 8 4 C6.02 4.99 6.02 4.99 4 6 C4 6.66 4 7.32 4 8 C1.69 7.67 -0.62 7.34 -3 7 C-2.25 2.25 -2.25 2.25 0 0 Z " fill="#3B6C8D" transform="translate(79,82)"/>
<path d="M0 0 C6.30289384 1.73329581 12.31937877 4.47906816 16 10 C10.08576039 7.90139885 3.53518637 5.30277956 0 0 Z " fill="#A0A0A0" transform="translate(123,21)"/>
<path d="M0 0 C2.64 0 5.28 0 8 0 C8 0.33 8 0.66 8 1 C7.030625 1.12375 6.06125 1.2475 5.0625 1.375 C3.5465625 1.684375 3.5465625 1.684375 2 2 C1.67 2.66 1.34 3.32 1 4 C1.62648438 4.09796875 2.25296875 4.1959375 2.8984375 4.296875 C3.71570313 4.44640625 4.53296875 4.5959375 5.375 4.75 C6.18710937 4.88921875 6.99921875 5.0284375 7.8359375 5.171875 C10 6 10 6 11.2890625 8.078125 C11.64097656 9.02945313 11.64097656 9.02945313 12 10 C10.58280758 9.37619308 9.1662694 8.7508997 7.75 8.125 C6.96109375 7.77695313 6.1721875 7.42890625 5.359375 7.0703125 C3.21131392 6.09586095 1.10170798 5.07013571 -1 4 C-0.67 2.68 -0.34 1.36 0 0 Z " fill="#C8C8C7" transform="translate(15,118)"/>
<path d="M0 0 C-1.36370299 2.99220268 -2.94908083 5.29026529 -5.125 7.75 C-5.93324219 8.67039062 -5.93324219 8.67039062 -6.7578125 9.609375 C-7.16773437 10.06828125 -7.57765625 10.5271875 -8 11 C-8.671875 9.234375 -8.671875 9.234375 -9 7 C-7.890625 5.078125 -7.890625 5.078125 -6.25 3.25 C-5.71890625 2.63640625 -5.1878125 2.0228125 -4.640625 1.390625 C-3 0 -3 0 0 0 Z " fill="#E0EBF1" transform="translate(92,58)"/>
<path d="M0 0 C0.66 1.32 1.32 2.64 2 4 C-3.61 4.66 -9.22 5.32 -15 6 C-14.67 4.68 -14.34 3.36 -14 2 C-9.71 2 -5.42 2 -1 2 C-0.67 1.34 -0.34 0.68 0 0 Z " fill="#D4D9DD" transform="translate(38,42)"/>
<path d="M0 0 C0.66 0.99 1.32 1.98 2 3 C0.35 5.64 -1.3 8.28 -3 11 C-3.99 10.67 -4.98 10.34 -6 10 C-6 8.35 -6 6.7 -6 5 C-5.67 5.66 -5.34 6.32 -5 7 C-4.34 7 -3.68 7 -3 7 C-2.690625 6.21625 -2.38125 5.4325 -2.0625 4.625 C-1 2 -1 2 0 0 Z " fill="#DEDEDE" transform="translate(173,112)"/>
<path d="M0 0 C1.2065625 0.0309375 1.2065625 0.0309375 2.4375 0.0625 C1.16808503 3.97652949 -0.07417694 5.85322873 -3.5625 8.0625 C-3.60491723 5.72955225 -3.60342937 3.39547433 -3.5625 1.0625 C-2.5625 0.0625 -2.5625 0.0625 0 0 Z " fill="#1F4E76" transform="translate(105.5625,57.9375)"/>
<path d="M0 0 C-5.58838089 3.10465605 -10.75467219 3.10585301 -17 3 C-11.52817608 -0.64788261 -6.33436983 -1.58359246 0 0 Z " fill="#ACADB0" transform="translate(117,174)"/>
<path d="M0 0 C0.33 0.99 0.66 1.98 1 3 C2.49985609 4.66710346 2.49985609 4.66710346 4 6 C2.68 6.99 1.36 7.98 0 9 C-0.99 7.68 -1.98 6.36 -3 5 C-1.125 1.125 -1.125 1.125 0 0 Z " fill="#2F648D" transform="translate(89,62)"/>
<path d="M0 0 C0.66 0 1.32 0 2 0 C3.06775224 1.96466413 4.06553465 3.96855359 5 6 C4.67 6.66 4.34 7.32 4 8 C2.68 7.34 1.36 6.68 0 6 C-0.33 6.66 -0.66 7.32 -1 8 C-1.93065133 5.39417629 -2.14917407 4.35801776 -1.0625 1.75 C-0.711875 1.1725 -0.36125 0.595 0 0 Z " fill="#CDDAE4" transform="translate(146,61)"/>
<path d="M0 0 C1.98 0 3.96 0 6 0 C6 0.66 6 1.32 6 2 C7.98 2 9.96 2 12 2 C12 2.66 12 3.32 12 4 C11.34 4 10.68 4 10 4 C10 4.66 10 5.32 10 6 C6.00452264 5.38531118 3.22493358 3.34540624 0 1 C0 0.67 0 0.34 0 0 Z " fill="#395770" transform="translate(21,95)"/>
<path d="M0 0 C-0.7115625 0.804375 -0.7115625 0.804375 -1.4375 1.625 C-3.28186076 4.42842836 -3.62456847 6.69620258 -4 10 C-4.66 10 -5.32 10 -6 10 C-6 6.7 -6 3.4 -6 0 C-2 -1 -2 -1 0 0 Z " fill="#EEF8FB" transform="translate(132,55)"/>
<path d="M0 0 C1.98 0 3.96 0 6 0 C5.79375 0.556875 5.5875 1.11375 5.375 1.6875 C4.89304789 4.659538 5.73434972 6.31979941 7 9 C1.21538462 4.56923077 1.21538462 4.56923077 0.125 1.6875 C0.08375 1.130625 0.0425 0.57375 0 0 Z " fill="#878787" transform="translate(27,141)"/>
<path d="M0 0 C1.1446875 0.12375 1.1446875 0.12375 2.3125 0.25 C1.6525 1.57 0.9925 2.89 0.3125 4.25 C-0.6775 4.25 -1.6675 4.25 -2.6875 4.25 C-3.3475 5.9 -4.0075 7.55 -4.6875 9.25 C-5.6775 9.25 -6.6675 9.25 -7.6875 9.25 C-4.49832888 0.4184492 -4.49832888 0.4184492 0 0 Z " fill="#8F8F8F" transform="translate(177.6875,113.75)"/>
<path d="M0 0 C1.65 0 3.3 0 5 0 C5.66 1.32 6.32 2.64 7 4 C6.34 4 5.68 4 5 4 C4.34 5.32 3.68 6.64 3 8 C0 2.25 0 2.25 0 0 Z " fill="#919191" transform="translate(158,114)"/>
<path d="M0 0 C1.32 0 2.64 0 4 0 C4.054138 2.24973447 4.09285491 4.49984383 4.125 6.75 C4.14820313 8.00296875 4.17140625 9.2559375 4.1953125 10.546875 C4.01537302 13.72820492 3.68998582 15.36521896 2 18 C0.91681338 13.91721966 1.16526815 10.82121165 1.9375 6.6875 C2.13214844 5.61886719 2.32679688 4.55023438 2.52734375 3.44921875 C2.68332031 2.64097656 2.83929688 1.83273438 3 1 C2.01 0.67 1.02 0.34 0 0 Z " fill="#E4F2F9" transform="translate(164,55)"/>
<path d="M0 0 C5.75 1.75 5.75 1.75 8 4 C7.625 6.125 7.625 6.125 7 8 C5.8274869 7.04882866 4.66212985 6.08882991 3.5 5.125 C2.8503125 4.59132813 2.200625 4.05765625 1.53125 3.5078125 C1.0259375 3.01023438 0.520625 2.51265625 0 2 C0 1.34 0 0.68 0 0 Z " fill="#9A9A9A" transform="translate(139,31)"/>
<path d="M0 0 C0.99 0.33 1.98 0.66 3 1 C2.67 2.65 2.34 4.3 2 6 C0.68 6.33 -0.64 6.66 -2 7 C-2.66 5.02 -3.32 3.04 -4 1 C-3.01 1.33 -2.02 1.66 -1 2 C-0.67 1.34 -0.34 0.68 0 0 Z " fill="#A9A9A9" transform="translate(120,117)"/>
<path d="M0 0 C1.91595968 -0.08133791 3.83291932 -0.13934367 5.75 -0.1875 C7.35101563 -0.23970703 7.35101563 -0.23970703 8.984375 -0.29296875 C12.30027855 0.02917214 13.59016673 0.77148914 16 3 C15.67 3.66 15.34 4.32 15 5 C13.68 4.67 12.36 4.34 11 4 C11 3.01 11 2.02 11 1 C5.06 1.495 5.06 1.495 -1 2 C-0.67 1.34 -0.34 0.68 0 0 Z " fill="#BEBEBE" transform="translate(58,114)"/>
<path d="M0 0 C4.05281712 1.22527029 7.44360764 2.69880494 11 5 C9.4375 5.75 9.4375 5.75 7 6 C4.49713591 4.86915563 2.32992278 3.47860484 0 2 C0 1.34 0 0.68 0 0 Z " fill="#A2A2A1" transform="translate(53,165)"/>
<path d="M0 0 C1.65 0 3.3 0 5 0 C2.44977144 2.97526665 -0.40293526 4.50122302 -4 6 C-4.99 5.67 -5.98 5.34 -7 5 C-3.375 2 -3.375 2 0 2 C0 1.34 0 0.68 0 0 Z " fill="#9C9C9C" transform="translate(131,165)"/>
<path d="M0 0 C3.63 0 7.26 0 11 0 C11 0.99 11 1.98 11 3 C7.37 2.67 3.74 2.34 0 2 C0 1.34 0 0.68 0 0 Z " fill="#929292" transform="translate(37,115)"/>
<path d="M0 0 C-1.38877354 3.35620271 -2.91677965 5.07298728 -6 7 C-6.66 7 -7.32 7 -8 7 C-4.5 0 -4.5 0 0 0 Z " fill="#1B4264" transform="translate(41,91)"/>
<path d="M0 0 C0.99 0 1.98 0 3 0 C3.66 1.65 4.32 3.3 5 5 C2.69 5.33 0.38 5.66 -2 6 C-1.34 4.02 -0.68 2.04 0 0 Z " fill="#C6D4DE" transform="translate(133,90)"/>
<path d="M0 0 C0.99 0.33 1.98 0.66 3 1 C3.25 3.8125 3.25 3.8125 3 7 C1 8.875 1 8.875 -1 10 C-1.02689216 8.52093108 -1.04634621 7.04172517 -1.0625 5.5625 C-1.07410156 4.73878906 -1.08570312 3.91507812 -1.09765625 3.06640625 C-1 1 -1 1 0 0 Z " fill="#417497" transform="translate(95,66)"/>
<path d="M0 0 C7.75 0.75 7.75 0.75 10 3 C7.69 3 5.38 3 3 3 C2.67 3.99 2.34 4.98 2 6 C1.34 5.34 0.68 4.68 0 4 C0 2.68 0 1.36 0 0 Z " fill="#CBD8E0" transform="translate(158,52)"/>
<path d="M0 0 C1 3 1 3 -0.3125 6.625 C-2 10 -2 10 -4 11 C-4.56638908 6.18569279 -2.82561627 3.79692186 0 0 Z " fill="#E5E5E3" transform="translate(176,121)"/>
<path d="M0 0 C0.99 0 1.98 0 3 0 C3 3.3 3 6.6 3 10 C-0.16130459 5.78492722 -0.3367697 4.93928888 0 0 Z " fill="#1E4360" transform="translate(10,73)"/>
<path d="M0 0 C1.98 0 3.96 0 6 0 C3.375 4.875 3.375 4.875 0 6 C0 4.02 0 2.04 0 0 Z " fill="#134065" transform="translate(65,91)"/>
<path d="M0 0 C1.32 0.33 2.64 0.66 4 1 C4.625 3.375 4.625 3.375 5 6 C4.34 6.66 3.68 7.32 3 8 C0 2.25 0 2.25 0 0 Z " fill="#E1ECF2" transform="translate(172,84)"/>
<path d="M0 0 C0.33 0 0.66 0 1 0 C1 2.31 1 4.62 1 7 C-0.65 6.67 -2.3 6.34 -4 6 C-2.84826645 3.53199953 -1.95216435 1.95216435 0 0 Z " fill="#224E72" transform="translate(111,49)"/>
<path d="M0 0 C0.99 0 1.98 0 3 0 C7 4.34285714 7 4.34285714 7 7 C4.13302508 5.71480435 2.02392288 4.42870746 0 2 C0 1.34 0 0.68 0 0 Z " fill="#485E70" transform="translate(136,91)"/>
<path d="M0 0 C3.63 0 7.26 0 11 0 C10.34 2.31 9.68 4.62 9 7 C8.67 7 8.34 7 8 7 C8 5.02 8 3.04 8 1 C5.36 1 2.72 1 0 1 C0 0.67 0 0.34 0 0 Z " fill="#D9E7F0" transform="translate(35,79)"/>
<path d="M0 0 C-0.33 2.31 -0.66 4.62 -1 7 C-1.66 6.67 -2.32 6.34 -3 6 C-2.67 4.68 -2.34 3.36 -2 2 C-4.31 2 -6.62 2 -9 2 C-5.5647952 -0.29013653 -4.014669 -0.17842973 0 0 Z " fill="#D8E2E7" transform="translate(135,53)"/>
<path d="M0 0 C2.97 0 5.94 0 9 0 C9 0.33 9 0.66 9 1 C7.35 1.33 5.7 1.66 4 2 C3.67 2.99 3.34 3.98 3 5 C2.34 5 1.68 5 1 5 C0.67 3.35 0.34 1.7 0 0 Z " fill="#929292" transform="translate(167,103)"/>
<path d="M0 0 C0.95904856 3.83619425 0.91892116 5.32431536 0 9 C-0.99 9.33 -1.98 9.66 -3 10 C-2.01 6.7 -1.02 3.4 0 0 Z " fill="#C3D3DD" transform="translate(143,67)"/>
<path d="M0 0 C0.99 0.33 1.98 0.66 3 1 C3 4.3 3 7.6 3 11 C0.70986347 7.5647952 0.82157027 6.014669 1 2 C0.34 1.67 -0.32 1.34 -1 1 C-0.67 0.67 -0.34 0.34 0 0 Z " fill="#C8CACB" transform="translate(19,95)"/>
<path d="M0 0 C0.99 0 1.98 0 3 0 C1.63016497 3.16115776 1.0109362 3.9927092 -2 6 C-2.66 5.34 -3.32 4.68 -4 4 C-2.68 3.34 -1.36 2.68 0 2 C0 1.34 0 0.68 0 0 Z " fill="#425867" transform="translate(155,91)"/>
<path d="M0 0 C0.99 0 1.98 0 3 0 C2.42647107 3.87132028 0.51295648 6.08172796 -2 9 C-1.41196203 5.97580475 -0.77321882 2.98241547 0 0 Z " fill="#2F516B" transform="translate(112,91)"/>
<path d="M0 0 C0.99 0.33 1.98 0.66 3 1 C2.67 3.64 2.34 6.28 2 9 C1.34 9 0.68 9 0 9 C0 6.03 0 3.06 0 0 Z " fill="#013661" transform="translate(147,49)"/>
<path d="M0 0 C1.98 0 3.96 0 6 0 C6 0.99 6 1.98 6 3 C4.02 3 2.04 3 0 3 C0 2.01 0 1.02 0 0 Z " fill="#949494" transform="translate(41,124)"/>
<path d="M0 0 C0.66 0.66 1.32 1.32 2 2 C1.34 3.32 0.68 4.64 0 6 C-0.33 5.01 -0.66 4.02 -1 3 C-1.66 4.32 -2.32 5.64 -3 7 C-3.66 7 -4.32 7 -5 7 C-3.75023244 3.34683329 -3.32901247 2.21934164 0 0 Z " fill="#C1CED7" transform="translate(116,93)"/>
<path d="M0 0 C1.65 0 3.3 0 5 0 C5.66 1.98 6.32 3.96 7 6 C6.34 6 5.68 6 5 6 C5 5.01 5 4.02 5 3 C3.68 3.33 2.36 3.66 1 4 C1.33 3.01 1.66 2.02 2 1 C1.34 0.67 0.68 0.34 0 0 Z " fill="#B5C8D4" transform="translate(156,90)"/>
<path d="M0 0 C0.33 1.32 0.66 2.64 1 4 C0.34 4 -0.32 4 -1 4 C-1 5.65 -1 7.3 -1 9 C-1.33 9 -1.66 9 -2 9 C-2 7.35 -2 5.7 -2 4 C-2.66 3.67 -3.32 3.34 -4 3 C-2.68 2.01 -1.36 1.02 0 0 Z " fill="#3A6A8C" transform="translate(82,72)"/>
<path d="M0 0 C0.66 0 1.32 0 2 0 C1.67 1.65 1.34 3.3 1 5 C0.34 5 -0.32 5 -1 5 C-1.33 5.66 -1.66 6.32 -2 7 C-2.125 4.625 -2.125 4.625 -2 2 C-1.34 1.34 -0.68 0.68 0 0 Z " fill="#295479" transform="translate(85,67)"/>
<path d="M0 0 C0.33 0 0.66 0 1 0 C1.19622241 4.21878192 0.80230168 7.17010894 -1 11 C-2.1875 9.4375 -2.1875 9.4375 -3 7 C-1.625 3.25 -1.625 3.25 0 0 Z " fill="#518CB5" transform="translate(99,56)"/>
<path d="M0 0 C0.66 0 1.32 0 2 0 C2 1.65 2 3.3 2 5 C0.68 5.33 -0.64 5.66 -2 6 C-1.125 1.125 -1.125 1.125 0 0 Z " fill="#375F81" transform="translate(135,57)"/>
<path d="M0 0 C2.475 0.99 2.475 0.99 5 2 C4.34 3.65 3.68 5.3 3 7 C2.34 6.67 1.68 6.34 1 6 C1.33 5.34 1.66 4.68 2 4 C1.01 3.67 0.02 3.34 -1 3 C-0.67 2.01 -0.34 1.02 0 0 Z " fill="#4A7291" transform="translate(106,54)"/>
<path d="M0 0 C-2.75 1.625 -2.75 1.625 -6 3 C-8.375 2.1875 -8.375 2.1875 -10 1 C-3.71428571 -1.42857143 -3.71428571 -1.42857143 0 0 Z " fill="#3B5466" transform="translate(137,50)"/>
<path d="M0 0 C2.97 0.99 5.94 1.98 9 3 C8.67 3.66 8.34 4.32 8 5 C4.5625 4.1875 4.5625 4.1875 1 3 C0.67 2.01 0.34 1.02 0 0 Z " fill="#374B5C" transform="translate(157,48)"/>
<path d="M0 0 C1.32 0.33 2.64 0.66 4 1 C2.68 2.32 1.36 3.64 0 5 C-0.99 4.67 -1.98 4.34 -3 4 C-2.01 2.68 -1.02 1.36 0 0 Z " fill="#929292" transform="translate(151,150)"/>
<path d="M0 0 C1.65 1.65 3.3 3.3 5 5 C2.3333581 6.33332095 0.83319697 5.67102033 -2 5 C-1.34 3.35 -0.68 1.7 0 0 Z " fill="#D2D2D2" transform="translate(161,122)"/>
<path d="M0 0 C1.5 1.3125 1.5 1.3125 3 3 C3 3.99 3 4.98 3 6 C2.34 6 1.68 6 1 6 C1.33 7.32 1.66 8.64 2 10 C1.34 9.67 0.68 9.34 0 9 C-0.99444068 5.65506316 -1.10348268 3.31044803 0 0 Z " fill="#849AAB" transform="translate(167,69)"/>
<path d="M0 0 C0.66 0.99 1.32 1.98 2 3 C1.125 5.6875 1.125 5.6875 0 8 C-0.99 8 -1.98 8 -3 8 C-1.125 2.25 -1.125 2.25 0 0 Z " fill="#124977" transform="translate(141,63)"/>
<path d="M0 0 C0.33 0 0.66 0 1 0 C1 1.98 1 3.96 1 6 C0.01 6.33 -0.98 6.66 -2 7 C-2.33 6.01 -2.66 5.02 -3 4 C-1.625 1.8125 -1.625 1.8125 0 0 Z " fill="#195988" transform="translate(101,60)"/>
<path d="M0 0 C2.0625 0.4375 2.0625 0.4375 4 1 C3.01 2.98 2.02 4.96 1 7 C0.67 7 0.34 7 0 7 C-0.38133299 5.0085944 -0.71325582 3.00720923 -1 1 C-0.67 0.67 -0.34 0.34 0 0 Z " fill="#E4EBF0" transform="translate(64,47)"/>
<path d="M0 0 C-1.98 1.32 -3.96 2.64 -6 4 C-6.66 3.67 -7.32 3.34 -8 3 C-8 2.34 -8 1.68 -8 1 C-3.375 -1.125 -3.375 -1.125 0 0 Z " fill="#999999" transform="translate(56,27)"/>
</svg>
